<svg id="Layer_1" enable-background="new 0 0 512 512" height="512" viewBox="0 0 512 512" width="512" xmlns="http://www.w3.org/2000/svg"><g clip-rule="evenodd" fill-rule="evenodd"><path d="m151.389 250.54v-88.919c-2.399.848-4.98 1.31-7.668 1.31-12.71 0-23.028-10.318-23.028-23.028 0-7.011 3.139-13.294 8.088-17.519-12.201-3.748-21.081-15.114-21.081-28.537 0-15.412 11.706-28.111 26.705-29.683-.078-1-.118-2.01-.118-3.03 0-21.351 17.335-38.685 38.686-38.685 5.398 0 10.54 1.108 15.21 3.109 7.002-9.956 18.579-16.466 31.664-16.466 17.949 0 31.794 3.825 36.153 20.414 4.359-16.589 20.736-20.414 38.685-20.414 13.087 0 24.662 6.51 31.664 16.466 4.67-2.001 9.812-3.109 15.211-3.109 21.352 0 38.686 17.334 38.686 38.685 0 1.02-.039 2.03-.117 3.03 14.998 1.572 26.705 14.271 26.705 29.683 0 13.423-8.881 24.789-21.082 28.537 4.949 4.225 8.089 10.508 8.089 17.519 0 12.71-10.318 23.028-23.027 23.028-3.591 0-6.99-.823-10.021-2.292v90.032c-1.392-1.019-2.947-1.853-4.637-2.458-5.847-2.093-12.181-1.041-16.965 2.458h-4.619v-87.74h-157.143v87.74h-4.619c-4.785-3.499-11.119-4.551-16.965-2.458-1.617.579-3.111 1.368-4.456 2.327z" fill="#072b4f"/><path d="m206.342 330.841c14.564 9.822 31.834 15.181 49.656 15.181h.004c17.821 0 35.089-5.357 49.653-15.18l4.301 54.89c2.258 18.018 15.677 32.629 33.437 36.411 36.722 7.715 69.353 29.78 90.144 61.967l14.463 22.391h-384s6.187-9.577 14.463-22.392c20.792-32.187 53.423-54.252 90.142-61.976 17.756-3.781 31.172-18.391 33.429-36.403 1.389-11.05 2.93-43.899 4.308-54.889z" fill="#89bcf2"/><path d="m203.398 369.925c.991-13.971 2.005-31.598 2.944-39.084 14.564 9.822 31.834 15.181 49.656 15.181h.004c17.821 0 35.089-5.357 49.653-15.18l3.055 38.986c-13.938 12.617-32.427 20.302-52.709 20.302h-.002c-20.23 0-38.674-7.645-52.601-20.205z" fill="#6cadef"/><path d="m320.976 409.399c5.844 6.313 13.596 10.864 22.417 12.743 36.722 7.715 69.353 29.78 90.144 61.967l14.463 22.392h-384s6.187-9.577 14.463-22.392c20.792-32.187 53.423-54.252 90.142-61.976 8.818-1.878 16.565-6.426 22.406-12.734 43.322 33.386 86.643 33.452 129.965 0z" fill="#ffae34"/><path d="m179.485 230.653s0-.001 0-.002c-4.59-7.197-15.604-10.262-23.64-7.385s-13.013 10.931-11.992 19.405c1.311 10.881 2.532 21.021 3.49 28.963 1.145 9.511 9.215 16.666 18.794 16.666h13.348zm151.227 0s0-.001.001-.002c4.589-7.197 17.406-10.262 25.442-7.385s13.013 10.931 11.992 19.405c-1.312 10.881-2.532 21.021-3.49 28.963-1.146 9.511-9.215 16.666-18.794 16.666-5.994 0-15.151 0-15.151 0z" fill="#97c7f3"/><path d="m334.571 162.931v125.091c0 43.393-35.178 78.569-78.57 78.569h-.002c-43.393 0-78.57-35.177-78.57-78.569v-125.091z" fill="#add4f6"/></g><path d="m256.415 332.064c-8.486 0-17.078-2.916-25.721-8.749-1.831-1.235-2.313-3.722-1.078-5.553 1.235-1.832 3.722-2.313 5.553-1.078 14.461 9.76 28.118 9.778 41.759.059 1.799-1.282 4.296-.865 5.579.936 1.281 1.799.862 4.297-.937 5.578-8.235 5.871-16.642 8.807-25.155 8.807z" fill="#013569"/><path clip-rule="evenodd" d="m300.342 238.869c4.52 0 8.189 3.67 8.189 8.189 0 4.52-3.67 8.189-8.189 8.189s-8.188-3.669-8.188-8.189c-.001-4.519 3.668-8.189 8.188-8.189z" fill="#013569" fill-rule="evenodd"/><path clip-rule="evenodd" d="m211.658 238.869c4.52 0 8.189 3.67 8.189 8.189 0 4.52-3.669 8.189-8.189 8.189-4.519 0-8.189-3.669-8.189-8.189 0-4.519 3.67-8.189 8.189-8.189z" fill="#013569" fill-rule="evenodd"/></svg>