<svg height="512" viewBox="0 0 56 56" width="512" xmlns="http://www.w3.org/2000/svg"><g id="Notification"><g id="Filled"><path d="m34.006 41.409a5.657 5.657 0 0 1 -.99 2.36 5.869 5.869 0 0 1 -9.58 0 5.864 5.864 0 1 1 10.57-2.36z" fill="#eaa73b"/><path d="m33.016 43.769a5.869 5.869 0 0 1 -9.58 0z" fill="#f2b549"/><path d="m43.126 37.319v.01l-30.25-.05 1.07-13.82c.6-7.75 6.74-13.72 14.1-13.71a13.037 13.037 0 0 1 1.99.15 14.623 14.623 0 0 1 12.07 13.61z" fill="#cdafe0"/><path d="m43.126 37.319-26.25-.04 1.07-13.82a14.606 14.606 0 0 1 12.09-13.559 14.623 14.623 0 0 1 12.07 13.61z" fill="#e1c9ee"/><path d="m46.256 38.239v.26a2.989 2.989 0 0 1 -2.91 2.99.34.34 0 0 1 -.1.01l-30.51-.05a3 3 0 0 1 -2.99-3.01v-.26a3 3 0 0 1 3-2.99l3.9.01 26.61.04a3 3 0 0 1 3 3z" fill="#502a8e"/><path d="m46.256 38.239v.26a2.989 2.989 0 0 1 -2.91 2.99l-26.61-.04a3 3 0 0 1 -2.99-3.01v-.26a2.985 2.985 0 0 1 2.9-2.98l26.61.04a3 3 0 0 1 3 3z" fill="#6b39b6"/><path d="m43.666 16.789a6.029 6.029 0 0 1 -4.9 4.88 6.138 6.138 0 0 1 -2.05-.01 6 6 0 0 1 2.04-11.83.06.06 0 0 0 .04.01 6.012 6.012 0 0 1 4.87 6.95z" fill="#ce305d"/><path d="m43.666 16.789a6.029 6.029 0 0 1 -4.9 4.88c-.02 0-.03-.01-.05-.01a6 6 0 0 1 .04-11.83.06.06 0 0 0 .04.01 6.012 6.012 0 0 1 4.87 6.95z" fill="#e94367"/></g></g></svg>