<svg width="87" height="69" viewBox="0 0 87 69" fill="none" xmlns="http://www.w3.org/2000/svg">
<path d="M58.2 36.6C54.8667 35.1333 52.2667 32.9333 50.4 30C48.5333 27.0667 47.6 23.6 47.6 19.6C47.6 13.8667 49.4 9.2 53 5.60001C56.6 2.13334 61.2 0.400002 66.8 0.400002C72.4 0.400002 77.0667 2.2 80.8 5.8C84.4 9.40001 86.2 14 86.2 19.6C86.2 22.2667 85.8667 24.9333 85.2 27.6C84.5333 30.2667 83.0667 34.2667 80.8 39.6L69.2 68.4H49.4L58.2 36.6ZM11 36.6C7.66666 35.1333 5.06666 32.9333 3.19999 30C1.33333 27.0667 0.399994 23.6 0.399994 19.6C0.399994 13.8667 2.19999 9.2 5.8 5.60001C9.4 2.13334 14 0.400002 19.6 0.400002C25.2 0.400002 29.8667 2.2 33.6 5.8C37.2 9.40001 39 14 39 19.6C39 22.2667 38.6667 24.9333 38 27.6C37.3333 30.2667 35.8667 34.2667 33.6 39.6L22 68.4L2.19999 68.4L11 36.6Z" fill="black" fill-opacity="0.06"/>
</svg>
